# xmcd
#
# Track frame offsets: 
#        150
#        15859
#        32913
#        51255
#        68052
#        86349
#        102687
#        120056
#        140751
#        157267
#        174935
#        193868
#        212080
#        227755
#        243906
#        263237
#        280157
#        296504
#        312225
#
# Disc length: 4358 seconds
#
# Revision: 0
# Processed by: cddbd v1.5.1PL2 Copyright (c) Steve Scherf et al.
# Submitted via: ExactAudioCopy v0.95a5
#
DISCID=0d110413
DTITLE=蓝色合唱团 - 蓝色
DYEAR=2001
DGENRE=Blues
TTITLE0=One Love
TTITLE1=Riders
TTITLE2=Flexin
TTITLE3=Sorry seems to be the hardest world
TTITLE4=She told me
TTITLE5=Right here waiting
TTITLE6=U make me wanna
TTITLE7=Ain't got you
TTITLE8=Supersexual
TTITLE9=Don't treat me like a fool
TTITLE10=Get down
TTITLE11=Privacy
TTITLE12=Without you
TTITLE13=Invitation
TTITLE14=Like a friend
TTITLE15=All rise
TTITLE16=This temptation
TTITLE17=If you come back
TTITLE18=Make it happen
EXTD=
EXTT0=
EXTT1=
EXTT2=
EXTT3=
EXTT4=
EXTT5=
EXTT6=
EXTT7=
EXTT8=
EXTT9=
EXTT10=
EXTT11=
EXTT12=
EXTT13=
EXTT14=
EXTT15=
EXTT16=
EXTT17=
EXTT18=
PLAYORDER=
